<svg width="35" height="35" viewBox="0 0 35 35" fill="none" xmlns="http://www.w3.org/2000/svg">
<path d="M30.0759 1.11945L30.4079 0.78744C30.6578 0.537687 30.9544 0.339601 31.2809 0.204492C31.6073 0.0693832 31.9572 -0.000103342 32.3105 1.15357e-07C32.6638 0.000103573 33.0136 0.069795 33.34 0.205095C33.6663 0.340395 33.9628 0.538655 34.2126 0.788554C34.4623 1.03845 34.6604 1.3351 34.7955 1.66155C34.9306 1.988 35.0001 2.33787 35 2.69118C34.9999 3.04448 34.9302 3.39431 34.7949 3.72068C34.6596 4.04706 34.4614 4.34359 34.2115 4.59334L33.8795 4.92312C34.4474 5.5601 34.7502 6.3902 34.7257 7.24327C34.7013 8.09633 34.3515 8.90773 33.748 9.51115L10.8153 32.4468C10.6719 32.5894 10.4925 32.6903 10.2961 32.7387L1.38331 34.967C1.19679 35.0134 1.00143 35.0108 0.816212 34.9594C0.630997 34.908 0.462229 34.8096 0.326313 34.6737C0.190398 34.5378 0.0919584 34.369 0.0405639 34.1838C-0.0108306 33.9985 -0.0134318 33.8032 0.0330132 33.6166L2.26122 24.7035C2.30997 24.508 2.41085 24.3293 2.55311 24.1866L24.0375 2.70153C23.8226 2.5503 23.5612 2.47988 23.2994 2.50271C23.0377 2.52554 22.7924 2.64016 22.607 2.82631L15.2717 10.164C15.1681 10.2676 15.0452 10.3498 14.9098 10.4059C14.7745 10.4619 14.6294 10.4908 14.4829 10.4908C14.3364 10.4908 14.1914 10.4619 14.056 10.4059C13.9207 10.3498 13.7977 10.2676 13.6941 10.164C13.5906 10.0604 13.5084 9.93747 13.4523 9.80212C13.3963 9.66678 13.3674 9.52172 13.3674 9.37522C13.3674 9.22873 13.3963 9.08366 13.4523 8.94832C13.5084 8.81298 13.5906 8.69 13.6941 8.58641L21.0339 1.25092C21.6376 0.647092 22.4496 0.297265 23.3032 0.273232C24.1568 0.249199 24.9872 0.552782 25.624 1.12168C26.2362 0.574503 27.0284 0.271843 27.8495 0.271432C28.6706 0.271021 29.4631 0.572887 30.0759 1.11945ZM28.641 2.82631C28.432 2.61744 28.1487 2.50011 27.8533 2.50011C27.5579 2.50011 27.2745 2.61744 27.0656 2.82631L4.34459 25.5436L2.64224 32.3554L9.45387 30.653L32.1749 7.93575C32.2786 7.83226 32.361 7.70931 32.4171 7.57396C32.4733 7.4386 32.5022 7.29349 32.5022 7.14694C32.5022 7.0004 32.4733 6.85529 32.4171 6.71993C32.361 6.58457 32.2786 6.46163 32.1749 6.35813L28.6432 2.82631H28.641Z" fill="white"/>
</svg>
