<svg width="37" height="37" viewBox="0 0 37 37" fill="none" xmlns="http://www.w3.org/2000/svg">
<path d="M16.8798 2.1077C17.4398 0.630766 19.5589 0.630766 20.1206 2.1077L23.743 12.1418C23.9967 12.8067 24.6424 13.2495 25.3634 13.2495H34.2653C35.9102 13.2495 36.6277 15.2969 35.3345 16.2996L28.9997 21.9991C28.716 22.2172 28.5086 22.5196 28.4074 22.8629C28.3062 23.2062 28.3163 23.5728 28.4363 23.91L30.7497 33.7148C31.3131 35.2897 29.4897 36.6424 28.1108 35.673L19.5064 30.2132C19.2118 30.0061 18.8604 29.895 18.5002 29.895C18.1401 29.895 17.7887 30.0061 17.494 30.2132L8.88964 35.673C7.51245 36.6424 5.68728 35.288 6.25076 33.7148L8.56415 23.91C8.68416 23.5728 8.69427 23.2062 8.59304 22.8629C8.49181 22.5196 8.28444 22.2172 8.00068 21.9991L1.66596 16.2996C0.371017 15.2969 1.09198 13.2495 2.73341 13.2495H11.6353C11.9858 13.2506 12.3284 13.1453 12.6177 12.9475C12.9071 12.7497 13.1295 12.4688 13.2557 12.1418L16.878 2.1077H16.8798Z" stroke="white" stroke-width="2" stroke-linecap="round" stroke-linejoin="round"/>
</svg>
